<svg width="39" height="39" viewBox="0 0 39 39" fill="none" xmlns="http://www.w3.org/2000/svg">
<path d="M24.375 21.125H14.625M19.5 16.25V26" stroke="white" stroke-width="2.1" stroke-linecap="round"/>
<path d="M15.8892 34.125H23.1108C28.1824 34.125 30.719 34.125 32.5406 32.9306C33.3268 32.4157 34.0038 31.7509 34.5329 30.9741C35.75 29.1866 35.75 26.6955 35.75 21.7165C35.75 16.7375 35.75 14.2464 34.5329 12.4589C34.0038 11.6821 33.3268 11.0173 32.5406 10.5024C31.3706 9.73375 29.9049 9.45912 27.6607 9.36162C26.5899 9.36162 25.6685 8.56537 25.4589 7.5335C25.2987 6.77766 24.8824 6.10031 24.2805 5.61592C23.6786 5.13153 22.9279 4.86981 22.1552 4.875H16.8448C15.2393 4.875 13.8564 5.98812 13.5411 7.5335C13.3315 8.56537 12.4101 9.36162 11.3393 9.36162C9.09675 9.45912 7.631 9.73537 6.45937 10.5024C5.67375 11.0174 4.99732 11.6823 4.46875 12.4589C3.25 14.2464 3.25 16.7359 3.25 21.7165C3.25 26.6971 3.25 29.185 4.46713 30.9741C4.99363 31.7476 5.66962 32.4122 6.45937 32.9306C8.281 34.125 10.8176 34.125 15.8892 34.125Z" stroke="white" stroke-width="2.1"/>
</svg>
