<svg width="25" height="25" viewBox="0 0 25 25" fill="none" xmlns="http://www.w3.org/2000/svg">
<path d="M9.15625 20.1437C10.5446 21.2667 12.2769 21.8779 14.0625 21.875C15.2406 21.875 16.3594 21.614 17.3641 21.1453L20.9406 21.8594C21.0667 21.8844 21.1969 21.8781 21.3199 21.8408C21.4429 21.8035 21.5547 21.7364 21.6456 21.6456C21.7365 21.5547 21.8035 21.4428 21.8408 21.3199C21.8781 21.1969 21.8845 21.0666 21.8594 20.9406L21.1453 17.3656C21.6141 16.3609 21.875 15.2406 21.875 14.0625C21.8776 12.2774 21.2663 10.5457 20.1438 9.1578C20.3675 10.3144 20.3712 11.5029 20.1547 12.6609C20.4842 14.0926 20.2989 15.5945 19.6313 16.9031C19.551 17.0601 19.5262 17.2396 19.5609 17.4125L20.0984 20.0984L17.4109 19.5609C17.2386 19.5266 17.0597 19.5513 16.9031 19.6312C15.5941 20.2992 14.0915 20.4846 12.6594 20.1547C11.5014 20.3712 10.3129 20.3675 9.15625 20.1437ZM3.125 10.9375C3.12564 9.24691 3.67464 7.60216 4.68958 6.25016C5.70453 4.89815 7.13064 3.91184 8.75383 3.43931C10.377 2.96678 12.1097 3.03353 13.6917 3.62952C15.2738 4.22552 16.6198 5.3186 17.5277 6.74468C18.4356 8.17076 18.8565 9.85287 18.7271 11.5385C18.5977 13.2241 17.925 14.8222 16.81 16.093C15.695 17.3638 14.1979 18.2386 12.5434 18.5861C10.889 18.9336 9.16641 18.7351 7.63438 18.0203L4.05938 18.7344C3.93335 18.7594 3.80308 18.7531 3.68012 18.7158C3.55715 18.6785 3.44528 18.6114 3.35441 18.5206C3.26355 18.4297 3.1965 18.3178 3.15921 18.1949C3.12192 18.0719 3.11554 17.9416 3.14063 17.8156L3.85469 14.239C3.37337 13.205 3.12431 12.0781 3.125 10.9375ZM10.9375 13.875C10.6785 13.875 10.4301 13.9779 10.247 14.161C10.0638 14.3442 9.96094 14.5925 9.96094 14.8515C9.96094 15.1105 10.0638 15.3589 10.247 15.5421C10.4301 15.7252 10.6785 15.8281 10.9375 15.8281C11.1965 15.8281 11.4449 15.7252 11.628 15.5421C11.8112 15.3589 11.9141 15.1105 11.9141 14.8515C11.9141 14.5925 11.8112 14.3442 11.628 14.161C11.4449 13.9779 11.1965 13.875 10.9375 13.875ZM10.9375 6.25467C9.3 6.25467 8.025 7.5328 8.04219 9.30936C8.04426 9.51656 8.12856 9.71445 8.27654 9.8595C8.42451 10.0045 8.62405 10.0849 8.83125 10.0828C9.03845 10.0807 9.23634 9.99643 9.38139 9.84845C9.52644 9.70047 9.60676 9.50094 9.60469 9.29374C9.59531 8.38905 10.1672 7.81717 10.9375 7.81717C11.675 7.81717 12.2703 8.42967 12.2703 9.30155C12.2703 9.61717 12.1609 9.79374 11.7078 10.1515L11.275 10.4875C10.4844 11.1187 10.1563 11.6078 10.1563 12.5C10.1559 12.6952 10.2286 12.8835 10.3602 13.0278C10.4917 13.172 10.6725 13.2618 10.8669 13.2795C11.0613 13.2971 11.2553 13.2413 11.4107 13.1231C11.566 13.0048 11.6715 12.8327 11.7063 12.6406L11.7234 12.3969C11.75 12.1656 11.8797 12 12.2641 11.6969L12.6969 11.3609C13.4984 10.7203 13.8328 10.2172 13.8328 9.30155C13.8328 7.57655 12.5484 6.25467 10.9375 6.25467Z" fill="black"/>
</svg>
