<svg width="25" height="25" viewBox="0 0 25 25" fill="none" xmlns="http://www.w3.org/2000/svg">
<path fill-rule="evenodd" clip-rule="evenodd" d="M6.92165 2.33529C10.961 1.88824 15.0375 1.88824 19.0768 2.33529C21.4479 2.59959 23.3621 4.46266 23.6399 6.84397C24.12 10.9329 24.12 15.0658 23.6399 19.156C23.3608 21.5347 21.4466 23.3991 19.0768 23.6647C15.0375 24.1118 10.961 24.1118 6.92165 23.6647C4.55058 23.3991 2.63633 21.5347 2.3586 19.156C1.88047 15.0655 1.88047 10.9332 2.3586 6.84268C2.63633 4.46266 4.55188 2.59959 6.92165 2.334M14.297 7.81567C14.2971 7.98581 14.2636 8.1543 14.1985 8.31152C14.1333 8.46874 14.0378 8.61162 13.9174 8.73198C13.7969 8.85235 13.6539 8.94786 13.4965 9.01304C13.3391 9.07823 13.1703 9.11183 12.9999 9.11191C12.6557 9.11209 12.3255 8.97575 12.082 8.7329C11.8385 8.49005 11.7016 8.16058 11.7014 7.81696C11.7014 7.47335 11.8382 7.14381 12.0816 6.90084C12.3249 6.65787 12.655 6.52137 12.9992 6.52137C13.3434 6.52137 13.6735 6.65787 13.9169 6.90084C14.1603 7.14381 14.297 7.47205 14.297 7.81567ZM12.9992 11.3799C13.2574 11.3799 13.505 11.4822 13.6875 11.6645C13.87 11.8467 13.9726 12.0938 13.9726 12.3516V18.8295C13.9726 19.0873 13.87 19.3344 13.6875 19.5166C13.505 19.6989 13.2574 19.8012 12.9992 19.8012C12.7411 19.8012 12.4935 19.6989 12.311 19.5166C12.1284 19.3344 12.0259 19.0873 12.0259 18.8295V12.3516C12.0259 12.0938 12.1284 11.8467 12.311 11.6645C12.4935 11.4822 12.7411 11.3799 12.9992 11.3799Z" fill="black"/>
</svg>
