<svg width="200" height="50" viewBox="0 0 200 50" fill="none" xmlns="http://www.w3.org/2000/svg">
<path d="M16.578 7.6799L16.5454 7.64692C15.1874 8.95204 13.8457 10.2737 12.6977 11.5788C12.2311 12.1183 10.5161 14.467 9.66443 15.6261C9.55009 15.791 9.35643 16.0831 9.14643 16.0831C8.79177 16.0831 7.87011 15.4306 7.87011 15.056C7.8998 14.9263 7.95451 14.8038 8.03111 14.6955C8.6891 13.6637 11.7924 8.20054 11.7924 7.30297C11.7924 7.09094 11.7434 6.96137 11.5334 6.96137C10.9851 6.96137 9.2001 7.84245 6.49112 9.65408C6.35121 9.7676 6.18353 9.84086 6.00579 9.8661C5.70013 9.8661 5.71646 9.34311 5.71646 9.14758C5.71646 7.18989 8.51644 5.08378 8.9971 5.08378C9.07643 5.08378 9.17443 5.13325 9.17443 5.21571C9.17443 5.2322 9.09277 5.49134 8.30177 6.25934L8.33444 6.29232C9.48243 5.65389 11.4867 4.51367 12.8331 4.51367C13.3814 4.51367 13.9157 4.82229 13.8667 5.42773C13.7687 6.73286 13.1387 7.80947 11.0667 11.5152L11.0971 11.5458C14.2004 7.77649 15.5747 6.42189 15.9807 6.1439C16.4637 5.8188 17.677 4.88825 18.048 4.88825C18.307 4.88825 19.3663 5.65389 19.3663 6.43838C19.3663 7.46787 17.299 9.57163 15.7474 12.6719C15.2807 13.6142 15.2457 13.9464 15.2457 14.0124C15.2457 14.3045 15.311 14.6814 15.6657 14.6814C16.3027 14.6814 18.433 12.4858 18.8997 11.8898C18.9323 12.2808 18.965 12.4764 18.965 12.6248C18.9551 12.7678 18.8917 12.9017 18.7877 12.9993C16.4544 16.036 14.7627 16.9171 14.0674 16.9171C13.2601 16.9171 12.9684 16.2103 12.9684 15.5036C12.9684 14.606 13.4211 13.5789 13.8411 12.7944L16.578 7.6799Z" fill="#131415"/>
<path d="M24.4508 13.4731C23.4638 14.6322 21.6858 16.1658 20.0852 16.1658C18.9185 16.1658 18.3562 15.1057 18.3235 14.0268C18.2605 11.89 20.6032 9.70382 22.7055 9.72031C23.2211 9.72031 23.8721 9.84988 23.8721 10.5024C23.8721 11.3034 23.0811 12.5096 19.9778 13.5391L19.9405 13.8995C19.8915 14.5191 20.4258 14.7311 20.9438 14.7311C22.0895 14.7311 23.4475 13.5415 24.3038 12.8465L24.4508 13.4731ZM22.4465 10.837C22.4465 10.7215 22.3648 10.6249 22.2528 10.6556C21.4432 10.8676 20.5075 11.6521 20.0688 12.7287C21.4922 12.2505 22.4628 11.122 22.4465 10.837Z" fill="#131415"/>
<path d="M29.5421 10.8935C29.6728 10.7309 30.2421 9.99588 30.4754 9.99588C30.6364 9.99588 31.2524 10.1443 31.2524 10.3398C31.2524 10.5354 30.9934 10.9759 30.8791 11.1549C30.5244 11.7109 29.4254 13.6026 29.4254 14.2175C29.4222 14.2597 29.4277 14.302 29.4417 14.3419C29.4556 14.3817 29.4778 14.4181 29.5066 14.4488C29.5354 14.4794 29.5703 14.5036 29.609 14.5198C29.6476 14.536 29.6893 14.5437 29.7311 14.5426C30.1838 14.5426 30.9608 13.6286 31.2991 13.3364C31.2198 12.7145 31.2034 12.4224 32.0434 11.3269C32.3024 10.9853 32.9488 10.1867 33.4178 10.1867C33.8051 10.1867 33.9334 10.7073 33.9334 11.0018C33.9334 11.8994 33.3688 12.6509 32.8344 13.3035C32.9932 13.4418 33.1922 13.5244 33.4014 13.539C33.8051 13.539 34.3721 13.049 34.6777 12.804L34.7104 13.5108C34.2251 14.0173 33.6767 14.4884 32.9324 14.4884C32.5827 14.4878 32.2425 14.3738 31.9618 14.1633C31.2618 14.6863 30.0064 16.187 29.1175 16.187C29.004 16.1812 28.8931 16.1503 28.7928 16.0966C28.6924 16.0429 28.6049 15.9676 28.5365 15.876C28.3568 15.6404 28.1468 15.5179 28.2448 13.9678C27.6475 14.5049 26.5648 15.975 25.7715 15.9255C24.8662 15.876 24.0425 15.0444 24.0752 13.7393C24.1078 12.5307 24.6072 11.8287 25.4168 11.0136C26.7911 9.6001 27.0805 9.54356 27.4211 9.56005C28.1468 9.59304 28.3731 9.82155 28.3731 10.083C28.3731 10.9147 26.2895 12.6745 25.6268 13.1998C25.5402 13.5063 25.4963 13.8234 25.4961 14.1421C25.4961 14.2717 25.5288 14.5002 25.6758 14.5002C25.9325 14.5002 27.0315 13.5225 27.2578 13.294L29.5421 10.8935Z" fill="#131415"/>
<path d="M26.8868 39.4057L26.2358 37.6435C26.4858 37.7381 26.7434 37.8106 27.0058 37.8602C27.2653 37.9074 27.5285 37.9311 27.7922 37.9309C29.2295 37.9309 30.2981 37.4597 30.9981 36.5174C31.6981 35.5751 32.0466 34.1325 32.0435 32.1898C32.0435 31.3888 32.0333 30.47 32.0131 29.4335C31.9929 28.3969 31.982 27.7616 31.9805 27.5276C31.9805 24.2483 32.6688 21.7221 34.0454 19.9489C35.4221 18.1758 37.379 17.2892 39.9161 17.2892C40.6058 17.2855 41.2935 17.3645 41.9647 17.5248C42.6503 17.6962 43.3154 17.9426 43.948 18.2598L44.599 19.9089C44.2607 19.8453 43.934 19.7934 43.6214 19.7557C43.3294 19.7211 43.0357 19.7031 42.7417 19.7016C41.3013 19.7016 40.2692 20.2355 39.6454 21.3035C39.0216 22.3715 38.7105 24.1603 38.7121 26.6701C38.7121 26.7879 38.7121 27.1884 38.7284 27.8739C38.7447 28.5594 38.7447 29.1814 38.7447 29.7468C38.7447 31.6063 38.6226 33.0677 38.3784 34.131C38.173 35.1093 37.7677 36.0336 37.1884 36.8449C36.4398 37.8653 35.4575 38.6874 34.3254 39.2408C33.1351 39.7965 31.8357 40.0735 30.5245 40.0512C29.8592 40.0562 29.1948 40.0026 28.5388 39.891C27.9711 39.7955 27.4166 39.6326 26.8868 39.4057Z" fill="#131415"/>
<path d="M51.7412 17.5013C51.6883 18.9634 51.6479 20.3652 51.6199 21.7064C51.5919 23.0477 51.5787 24.3536 51.5802 25.6241V27.3722H59.8331C59.8331 25.4592 59.823 23.6963 59.8028 22.0833C59.7826 20.4704 59.7507 18.943 59.7071 17.5013C60.4468 17.5437 61.0021 17.5743 61.3731 17.5884C61.7441 17.6026 62.0871 17.6143 62.4045 17.6143C62.7218 17.6143 63.1044 17.6143 63.4754 17.5884C63.8464 17.5625 64.3668 17.539 65.0224 17.4848L66.1027 18.5425C66.0281 20.1021 65.9729 21.7127 65.9371 23.3743C65.9013 25.036 65.8826 26.7801 65.8811 28.6066C65.8811 30.4332 65.8998 32.2008 65.9371 33.9096C65.9744 35.6183 66.0296 37.3012 66.1027 38.9581L65.0878 39.9004C64.6421 39.8675 64.1941 39.8439 63.7391 39.8274C63.2841 39.8109 62.8291 39.8038 62.3741 39.8038C61.9191 39.8038 61.4688 39.8038 61.0255 39.8274C60.5821 39.851 60.1411 39.8675 59.7071 39.9004C59.7491 38.3409 59.781 36.7491 59.8028 35.1252C59.8246 33.5012 59.8347 31.8137 59.8331 30.0625H51.5802V31.6951C51.5802 32.8699 51.5934 34.1263 51.6199 35.4644C51.6463 36.8025 51.6868 38.282 51.7412 39.9028C51.3049 39.8698 50.8662 39.8463 50.4229 39.8298C49.9796 39.8133 49.5292 39.8062 49.0742 39.8062C48.6192 39.8062 48.1829 39.8062 47.7326 39.8298C47.2822 39.8533 46.8366 39.8698 46.3909 39.9028L45.3433 38.9605C45.4288 37.0758 45.4926 35.2752 45.5346 33.5586C45.5766 31.8419 45.5976 30.1929 45.5976 28.6113C45.5976 27.0188 45.5766 25.3893 45.5346 23.723C45.4926 22.0566 45.4288 20.329 45.3433 18.5402L46.4539 17.4824C47.1119 17.5366 47.6206 17.5719 47.9939 17.5861C48.3672 17.6002 48.7149 17.612 49.0416 17.612C49.3682 17.612 49.7019 17.612 50.0729 17.5861C50.4439 17.5602 50.9992 17.5437 51.7412 17.5013Z" fill="#131415"/>
<path d="M79.1155 26.3477C77.5288 28.5779 75.9632 30.8929 74.4185 33.2927C72.8739 35.6925 71.3401 38.1803 69.8172 40.756L67.8643 37.929C69.79 35.0329 71.5097 32.4053 73.0232 30.0464C74.5368 27.6874 75.9367 25.4494 77.2232 23.3323L75.1442 20.3027C76.0542 19.7043 76.9533 19.0879 77.8415 18.4534C78.7297 17.8189 79.5977 17.1804 80.4455 16.5381C82.4366 19.9792 84.4767 23.3794 86.5658 26.7388C88.6549 30.0982 90.7945 33.4231 92.9847 36.7134C92.1385 37.2489 91.2604 37.8497 90.3504 38.5156C89.4404 39.1815 88.49 39.9283 87.4991 40.756C86.1224 38.2886 84.7388 35.8613 83.3481 33.4741C81.9575 31.0869 80.5466 28.7114 79.1155 26.3477ZM78.7515 31.295C79.4079 32.0959 80.0877 32.8812 80.7908 33.6508C81.4939 34.4204 82.232 35.197 83.0051 35.9807C82.3596 36.5037 81.6876 37.073 80.9891 37.6887C80.2907 38.3043 79.5448 38.9852 78.7515 39.7312C77.9255 38.9459 77.1633 38.2517 76.4648 37.6486C75.7664 37.0455 75.1006 36.4896 74.4675 35.9807C75.2282 35.2127 75.9655 34.4361 76.6795 33.6508C77.3935 32.8655 78.0842 32.081 78.7515 31.2973V31.295Z" fill="#131415"/>
<path d="M98.811 25.5303V38.8925L95.6213 40.4945V21.9565L94.3193 20.5147C95.1982 19.9038 96.0608 19.2866 96.907 18.663C97.7532 18.0395 98.5947 17.394 99.4316 16.7266C101.578 19.5253 103.667 22.1395 105.699 24.5691C107.73 26.9987 109.651 29.1857 111.46 31.1301V18.4463L114.603 16.8279V34.8664L116.063 36.4684C115.228 37.1751 114.435 37.8819 113.684 38.5886C112.932 39.2954 112.215 40.0178 111.532 40.756C109.354 38.086 107.207 35.4852 105.09 32.9535C102.973 30.4218 100.88 27.9473 98.811 25.5303Z" fill="#131415"/>
<path d="M134.917 17.5651L133.75 20.2107H129.172C129.034 21.8551 128.934 23.5293 128.871 25.2334C128.809 26.9374 128.777 28.676 128.776 30.4491C128.776 31.9757 128.8 33.5243 128.848 35.0948C128.896 36.6654 128.967 38.2681 129.06 39.9031C128.584 39.8701 128.106 39.8457 127.625 39.83C127.142 39.8135 126.659 39.8065 126.172 39.8065C125.684 39.8065 125.199 39.8065 124.713 39.83C124.228 39.8536 123.738 39.8701 123.253 39.9031L122.238 38.9607C122.331 37.3478 122.4 35.8196 122.443 34.3763C122.487 32.933 122.505 31.5493 122.499 30.2253C122.499 28.4977 122.467 26.807 122.403 25.1533C122.34 23.4995 122.239 21.8504 122.102 20.206H117.538L116.397 17.5439C118.214 17.6099 119.888 17.6555 121.419 17.6806C122.949 17.7057 124.407 17.7191 125.791 17.7206C127.177 17.7206 128.627 17.7049 130.141 17.6735C131.654 17.6421 133.246 17.606 134.917 17.5651Z" fill="#131415"/>
<path d="M143.44 17.5014C143.366 19.1662 143.307 20.8938 143.265 22.6842C143.223 24.4746 143.202 26.3224 143.202 28.2274C143.202 30.1404 143.223 31.9889 143.265 33.7731C143.307 35.5572 143.366 37.2848 143.44 38.9559L142.423 39.917C141.947 39.8841 141.461 39.8597 140.965 39.844C140.468 39.8283 139.971 39.8204 139.471 39.8204C138.986 39.8204 138.503 39.8204 138.027 39.844C137.551 39.8676 137.094 39.8841 136.627 39.917C136.711 37.9287 136.775 36.0323 136.818 34.2277C136.862 32.4232 136.883 30.6877 136.881 29.0214C136.881 27.3534 136.86 25.6462 136.818 23.8998C136.776 22.1533 136.713 20.3723 136.627 18.5568L137.738 17.499C138.447 17.5524 139.002 17.587 139.404 17.6027C139.807 17.6192 140.183 17.6286 140.531 17.6286C140.878 17.6286 141.231 17.6286 141.641 17.6027C142.052 17.5768 142.635 17.5438 143.44 17.5014Z" fill="#131415"/>
<path d="M155.137 17.4851C154.966 18.8986 154.839 20.2658 154.755 21.5866C154.671 22.9075 154.629 24.2 154.629 25.4643C156.48 24.0225 158.292 22.5863 160.065 21.1555C161.838 19.7247 163.574 18.2932 165.271 16.8608L167.714 18.7031L160.802 23.794C162.136 25.9928 163.536 28.1586 165.002 30.2914C166.469 32.4242 167.995 34.5366 169.58 36.6286C168.725 37.2175 167.876 37.8457 167.035 38.5132C166.193 39.1807 165.349 39.8874 164.503 40.6335C163.137 38.3797 161.737 36.1283 160.303 33.8793C158.869 31.6303 157.401 29.3679 155.898 27.0922L154.755 27.8625C154.829 30.2184 154.922 32.3763 155.032 34.3363C155.143 36.2964 155.278 38.1496 155.438 39.8961C154.962 39.8537 154.468 39.8215 153.954 39.7995C153.441 39.7775 152.904 39.7665 152.344 39.7665C151.783 39.7665 151.269 39.7775 150.804 39.7995C150.339 39.8215 149.9 39.8537 149.486 39.8961L148.455 38.9538C148.539 37.0691 148.602 35.2685 148.646 33.5518C148.689 31.8352 148.71 30.1862 148.709 28.6046C148.709 27.0121 148.688 25.3826 148.646 23.7163C148.604 22.0499 148.54 20.3223 148.455 18.5335L149.565 17.4851C149.999 17.5181 150.438 17.5417 150.884 17.5582C151.329 17.5747 151.782 17.5817 152.249 17.5817C152.715 17.5817 153.182 17.5817 153.677 17.5582C154.171 17.5346 154.65 17.5181 155.137 17.4851Z" fill="#131415"/>
<path d="M180.022 26.3477C178.435 28.5779 176.869 30.8929 175.323 33.2927C173.777 35.6925 172.243 38.1803 170.722 40.756L168.769 37.929C170.696 35.0329 172.416 32.4053 173.928 30.0464C175.439 27.6874 176.839 25.4494 178.127 23.3323L176.048 20.3027C176.958 19.7043 177.858 19.0879 178.748 18.4534C179.638 17.8189 180.505 17.1804 181.35 16.5381C183.338 19.9792 185.379 23.3794 187.472 26.7388C189.566 30.0982 191.708 33.4231 193.898 36.7134C193.054 37.2489 192.176 37.8497 191.264 38.5156C190.352 39.1815 189.398 39.9283 188.401 40.756C187.024 38.2886 185.641 35.8613 184.25 33.4741C182.859 31.0869 181.45 28.7114 180.022 26.3477ZM179.656 31.295C180.311 32.0959 180.99 32.8812 181.695 33.6508C182.4 34.4204 183.138 35.197 183.909 35.9807C183.263 36.5037 182.593 37.0738 181.893 37.6887C181.193 38.3035 180.449 38.982 179.656 39.7312C178.831 38.9459 178.07 38.2517 177.371 37.6486C176.673 37.0455 176.006 36.4896 175.372 35.9807C176.132 35.2127 176.871 34.4361 177.586 33.6508C178.302 32.8655 178.995 32.081 179.665 31.2973L179.656 31.295Z" fill="#131415"/>
</svg>
