<svg width="25" height="25" viewBox="0 0 25 25" fill="none" xmlns="http://www.w3.org/2000/svg">
<path fill-rule="evenodd" clip-rule="evenodd" d="M8.04295 4.89615C8.92469 3.99062 10.048 3.37402 11.2708 3.12429C12.4937 2.87457 13.7612 3.00294 14.913 3.49318C16.0648 3.98342 17.0493 4.81351 17.7419 5.87849C18.4345 6.94347 18.8042 8.19552 18.8042 9.47632C18.8042 10.2807 18.9311 11.0495 19.1358 11.8656C19.1877 12.0316 19.244 12.1876 19.3045 12.3337C19.3867 12.5307 19.5526 12.7011 19.8698 12.9114C19.9938 12.9914 20.1207 13.067 20.2649 13.1514L20.399 13.2314C20.5922 13.3455 20.807 13.4788 21.0132 13.6358C21.7602 14.2031 22.0341 15.0771 21.9967 15.8651C21.9606 16.631 21.6261 17.4309 21.0017 17.9138C20.9614 17.9457 20.9196 17.9753 20.8763 18.0027C20.7716 18.0715 20.6628 18.1334 20.5504 18.1878C20.1204 18.3895 19.6722 18.5473 19.2123 18.6589C17.9578 18.9848 15.8799 19.2943 12.5 19.2943C9.12008 19.2943 7.04224 18.9848 5.78775 18.6589C5.32775 18.5473 4.87955 18.3895 4.44962 18.1878C4.30211 18.1163 4.16078 18.0321 4.02713 17.936L3.99829 17.9138C3.37393 17.4309 3.04084 16.631 3.00335 15.8651C2.96586 15.0771 3.23983 14.2031 3.98676 13.6358C4.18474 13.4904 4.38976 13.3555 4.60103 13.2314L4.73513 13.1514C4.87932 13.067 5.00621 12.9914 5.13022 12.91C5.44745 12.7026 5.61327 12.5307 5.69402 12.3337C5.98673 11.6286 6.19582 10.6984 6.19582 9.47483C6.19582 7.75801 6.86055 6.11229 8.04151 4.89763M10.8245 20.3846C10.6874 20.3365 10.5393 20.3319 10.3996 20.3715C10.26 20.411 10.1351 20.4929 10.0414 20.6065C9.94774 20.72 9.88951 20.8599 9.87435 21.0079C9.85918 21.1559 9.88777 21.3052 9.95641 21.4363C10.2028 21.9088 10.5694 22.3038 11.017 22.5792C11.4647 22.8546 11.9768 23 12.4986 23C13.0204 23 13.5324 22.8546 13.9801 22.5792C14.4278 22.3038 14.7943 21.9088 15.0407 21.4363C15.1091 21.3053 15.1376 21.1563 15.1224 21.0085C15.1073 20.8607 15.0492 20.721 14.9557 20.6075C14.8623 20.4941 14.7377 20.4122 14.5983 20.3724C14.4589 20.3327 14.3111 20.3369 14.1741 20.3846C13.8078 20.512 13.2686 20.6097 12.4986 20.6097C11.7286 20.6097 11.1907 20.512 10.8245 20.3846Z" fill="black"/>
</svg>
