<svg width="25" height="25" viewBox="0 0 25 25" fill="none" xmlns="http://www.w3.org/2000/svg">
<path d="M3.125 10.4166C3.125 6.48852 3.125 4.52394 4.34583 3.30415C5.56667 2.08435 7.53021 2.08331 11.4583 2.08331H13.5417C17.4698 2.08331 19.4344 2.08331 20.6542 3.30415C21.874 4.52498 21.875 6.48852 21.875 10.4166V14.5833C21.875 18.5114 21.875 20.476 20.6542 21.6958C19.4333 22.9156 17.4698 22.9166 13.5417 22.9166H11.4583C7.53021 22.9166 5.56562 22.9166 4.34583 21.6958C3.12604 20.475 3.125 18.5114 3.125 14.5833V10.4166Z" fill="black"/>
<path fill-rule="evenodd" clip-rule="evenodd" d="M7.55225 12.5C7.55225 12.2928 7.63456 12.0941 7.78107 11.9476C7.92758 11.801 8.1263 11.7187 8.3335 11.7187H16.6668C16.874 11.7187 17.0727 11.801 17.2193 11.9476C17.3658 12.0941 17.4481 12.2928 17.4481 12.5C17.4481 12.7072 17.3658 12.9059 17.2193 13.0524C17.0727 13.1989 16.874 13.2812 16.6668 13.2812H8.3335C8.1263 13.2812 7.92758 13.1989 7.78107 13.0524C7.63456 12.9059 7.55225 12.7072 7.55225 12.5ZM7.55225 8.33331C7.55225 8.12611 7.63456 7.9274 7.78107 7.78089C7.92758 7.63437 8.1263 7.55206 8.3335 7.55206H16.6668C16.874 7.55206 17.0727 7.63437 17.2193 7.78089C17.3658 7.9274 17.4481 8.12611 17.4481 8.33331C17.4481 8.54051 17.3658 8.73923 17.2193 8.88574C17.0727 9.03225 16.874 9.11456 16.6668 9.11456H8.3335C8.1263 9.11456 7.92758 9.03225 7.78107 8.88574C7.63456 8.73923 7.55225 8.54051 7.55225 8.33331ZM7.55225 16.6666C7.55225 16.4594 7.63456 16.2607 7.78107 16.1142C7.92758 15.9677 8.1263 15.8854 8.3335 15.8854H13.5418C13.749 15.8854 13.9477 15.9677 14.0943 16.1142C14.2408 16.2607 14.3231 16.4594 14.3231 16.6666C14.3231 16.8738 14.2408 17.0726 14.0943 17.2191C13.9477 17.3656 13.749 17.4479 13.5418 17.4479H8.3335C8.1263 17.4479 7.92758 17.3656 7.78107 17.2191C7.63456 17.0726 7.55225 16.8738 7.55225 16.6666Z" fill="white"/>
</svg>
