<svg width="27" height="27" viewBox="0 0 27 27" fill="none" xmlns="http://www.w3.org/2000/svg">
<path fill-rule="evenodd" clip-rule="evenodd" d="M12.7103 2.46939C13.1542 2.30329 13.6393 2.28163 14.0962 2.40752L14.2897 2.46939L22.1647 5.42252C22.564 5.57224 22.9126 5.83236 23.1697 6.17256C23.4268 6.51276 23.582 6.91902 23.6171 7.34402L23.625 7.52964V13.563C23.625 15.386 23.1327 17.1751 22.2003 18.7416C21.2679 20.3081 19.9298 21.5937 18.3274 22.4629L18.0281 22.6193L14.2549 24.5059C14.0471 24.6096 13.8202 24.6694 13.5883 24.6814C13.3564 24.6934 13.1245 24.6574 12.9071 24.5756L12.7451 24.5059L8.97187 22.6193C7.34131 21.804 5.96112 20.5635 4.977 19.029C3.99289 17.4944 3.44135 15.7225 3.38063 13.9005L3.375 13.563V7.52964C3.37501 7.10341 3.49608 6.68595 3.72413 6.32586C3.95217 5.96577 4.27781 5.67786 4.66312 5.49564L4.83525 5.42252L12.7103 2.46939ZM17.3621 9.70764L12.1894 14.8804L10.2004 12.8914C9.98928 12.6804 9.70303 12.562 9.4046 12.5621C9.10617 12.5622 8.82001 12.6809 8.60906 12.892C8.39812 13.1031 8.27967 13.3893 8.27977 13.6877C8.27988 13.9862 8.39853 14.2723 8.60962 14.4833L11.3141 17.1878C11.429 17.3027 11.5655 17.3939 11.7157 17.4562C11.8658 17.5184 12.0268 17.5504 12.1894 17.5504C12.3519 17.5504 12.5129 17.5184 12.6631 17.4562C12.8133 17.3939 12.9497 17.3027 13.0646 17.1878L18.9529 11.2984C19.0603 11.1946 19.146 11.0705 19.205 10.9332C19.264 10.796 19.295 10.6483 19.2963 10.499C19.2976 10.3496 19.2691 10.2015 19.2125 10.0632C19.156 9.92494 19.0724 9.79933 18.9668 9.6937C18.8612 9.58807 18.7356 9.50453 18.5973 9.44797C18.4591 9.3914 18.3109 9.36294 18.1615 9.36424C18.0122 9.36553 17.8645 9.39657 17.7273 9.45553C17.59 9.51449 17.4659 9.60019 17.3621 9.70764Z" fill="black"/>
</svg>
