<svg width="50" height="50" viewBox="0 0 50 50" fill="none" xmlns="http://www.w3.org/2000/svg">
<path fill-rule="evenodd" clip-rule="evenodd" d="M38.0207 29.1666C38.4351 29.1666 38.8325 29.3312 39.1255 29.6243C39.4186 29.9173 39.5832 30.3147 39.5832 30.7291V38.0208C39.5832 38.4352 39.4186 38.8326 39.1255 39.1256C38.8325 39.4187 38.4351 39.5833 38.0207 39.5833H30.729C30.3146 39.5833 29.9172 39.4187 29.6241 39.1256C29.3311 38.8326 29.1665 38.4352 29.1665 38.0208C29.1665 37.6064 29.3311 37.209 29.6241 36.9159C29.9172 36.6229 30.3146 36.4583 30.729 36.4583H36.4582V30.7291C36.4582 30.3147 36.6228 29.9173 36.9158 29.6243C37.2088 29.3312 37.6063 29.1666 38.0207 29.1666ZM11.979 29.1666C12.3934 29.1666 12.7908 29.3312 13.0839 29.6243C13.3769 29.9173 13.5415 30.3147 13.5415 30.7291V36.4583H19.2707C19.6851 36.4583 20.0825 36.6229 20.3755 36.9159C20.6685 37.209 20.8332 37.6064 20.8332 38.0208C20.8332 38.4352 20.6685 38.8326 20.3755 39.1256C20.0825 39.4187 19.6851 39.5833 19.2707 39.5833H11.979C11.5646 39.5833 11.1672 39.4187 10.8741 39.1256C10.5811 38.8326 10.4165 38.4352 10.4165 38.0208V30.7291C10.4165 30.3147 10.5811 29.9173 10.8741 29.6243C11.1672 29.3312 11.5646 29.1666 11.979 29.1666ZM29.1665 11.9791C29.1665 11.5647 29.3311 11.1673 29.6241 10.8743C29.9172 10.5812 30.3146 10.4166 30.729 10.4166H38.0123C38.4267 10.4166 38.8242 10.5812 39.1172 10.8743C39.4102 11.1673 39.5748 11.5647 39.5748 11.9791V19.2708C39.5748 19.6852 39.4102 20.0826 39.1172 20.3756C38.8242 20.6687 38.4267 20.8333 38.0123 20.8333C37.5979 20.8333 37.2005 20.6687 36.9075 20.3756C36.6145 20.0826 36.4498 19.6852 36.4498 19.2708V13.5416H30.729C30.3146 13.5416 29.9172 13.377 29.6241 13.084C29.3311 12.791 29.1665 12.3935 29.1665 11.9791ZM10.4165 11.9791C10.4165 11.5647 10.5811 11.1673 10.8741 10.8743C11.1672 10.5812 11.5646 10.4166 11.979 10.4166H19.2707C19.6851 10.4166 20.0825 10.5812 20.3755 10.8743C20.6685 11.1673 20.8332 11.5647 20.8332 11.9791C20.8332 12.3935 20.6685 12.791 20.3755 13.084C20.0825 13.377 19.6851 13.5416 19.2707 13.5416H13.5415V19.2708C13.5415 19.6852 13.3769 20.0826 13.0839 20.3756C12.7908 20.6687 12.3934 20.8333 11.979 20.8333C11.5646 20.8333 11.1672 20.6687 10.8741 20.3756C10.5811 20.0826 10.4165 19.6852 10.4165 19.2708V11.9791Z" fill="white"/>
<circle cx="25" cy="25" r="5.25" stroke="white" stroke-width="2"/>
</svg>
