<svg width="24" height="24" viewBox="0 0 24 24" fill="none" xmlns="http://www.w3.org/2000/svg">
<path d="M10.8608 3.363C11.3678 2.454 11.6208 2 11.9998 2C12.3788 2 12.6318 2.454 13.1388 3.363L13.2688 3.598C13.4138 3.857 13.4858 3.986 13.5978 4.071C13.7098 4.156 13.8498 4.188 14.1298 4.251L14.3838 4.309C15.3678 4.531 15.8598 4.643 15.9768 5.019C16.0938 5.395 15.7588 5.788 15.0878 6.572L14.9138 6.775C14.7238 6.998 14.6288 7.109 14.5858 7.247C14.5428 7.385 14.5568 7.534 14.5858 7.831L14.6118 8.101C14.7138 9.148 14.7638 9.671 14.4578 9.904C14.1518 10.137 13.6908 9.924 12.7698 9.5L12.5308 9.39C12.2698 9.27 12.1388 9.21 11.9998 9.21C11.8608 9.21 11.7298 9.27 11.4688 9.39L11.2298 9.5C10.3098 9.925 9.8478 10.137 9.5418 9.904C9.2358 9.671 9.2858 9.148 9.3878 8.102L9.4138 7.831C9.4428 7.534 9.4568 7.385 9.4138 7.247C9.3708 7.109 9.2758 6.997 9.0858 6.775L8.9118 6.572C8.2418 5.788 7.9058 5.395 8.0228 5.019C8.1398 4.643 8.6318 4.531 9.6158 4.309L9.8698 4.251C10.1498 4.188 10.2898 4.156 10.4018 4.071C10.5138 3.986 10.5858 3.857 10.7298 3.598L10.8608 3.363ZM19.4298 7.682C19.6838 7.227 19.8098 7 19.9998 7C20.1898 7 20.3158 7.227 20.5698 7.682L20.6348 7.799C20.7068 7.929 20.7428 7.993 20.7988 8.036C20.8548 8.079 20.9248 8.094 21.0648 8.126L21.1918 8.154C21.6838 8.266 21.9298 8.321 21.9878 8.51C22.0458 8.699 21.8788 8.894 21.5438 9.286L21.4568 9.387C21.3618 9.499 21.3138 9.555 21.2928 9.624C21.2718 9.693 21.2788 9.767 21.2928 9.916L21.3058 10.051C21.3558 10.574 21.3818 10.836 21.2288 10.952C21.0758 11.068 20.8458 10.962 20.3848 10.75L20.2648 10.695C20.1348 10.635 20.0688 10.605 19.9998 10.605C19.9298 10.605 19.8648 10.635 19.7338 10.695L19.6148 10.75C19.1548 10.962 18.9248 11.068 18.7708 10.952C18.6178 10.836 18.6428 10.574 18.6938 10.051L18.7068 9.916C18.7208 9.766 18.7288 9.692 18.7068 9.624C18.6858 9.554 18.6378 9.499 18.5428 9.387L18.4558 9.286C18.1208 8.894 17.9528 8.698 18.0118 8.51C18.0708 8.322 18.3158 8.266 18.8078 8.154L18.9348 8.126C19.0748 8.094 19.1448 8.078 19.2008 8.036C19.2568 7.993 19.2928 7.928 19.3648 7.799L19.4298 7.682ZM3.4298 7.682C3.6848 7.227 3.8098 7 3.9998 7C4.1898 7 4.3158 7.227 4.5698 7.682L4.6348 7.799C4.7068 7.929 4.7428 7.993 4.7988 8.036C4.8548 8.079 4.9248 8.094 5.0648 8.126L5.1918 8.154C5.6838 8.266 5.9298 8.321 5.9888 8.51C6.0468 8.698 5.8788 8.894 5.5438 9.286L5.4568 9.387C5.3618 9.499 5.3138 9.555 5.2928 9.624C5.2718 9.693 5.2788 9.767 5.2928 9.916L5.3058 10.051C5.3558 10.574 5.3818 10.836 5.2288 10.952C5.0758 11.068 4.8448 10.962 4.3848 10.75L4.2648 10.695C4.1348 10.635 4.0688 10.605 3.9998 10.605C3.9298 10.605 3.8648 10.635 3.7338 10.695L3.6148 10.75C3.1548 10.962 2.9248 11.068 2.7708 10.952C2.6178 10.836 2.6428 10.574 2.6938 10.051L2.7068 9.916C2.7208 9.766 2.7288 9.692 2.7068 9.624C2.6858 9.554 2.6378 9.499 2.5428 9.387L2.4558 9.286C2.1208 8.894 1.9528 8.698 2.0108 8.51C2.0698 8.321 2.3158 8.266 2.8078 8.154L2.9348 8.126C3.0748 8.094 3.1448 8.078 3.2008 8.036C3.2568 7.993 3.2928 7.928 3.3648 7.799L3.4298 7.682Z" stroke="#6B7280" stroke-width="1.5"/>
<path d="M4 21.388H6.26C7.27 21.388 8.293 21.494 9.276 21.696C11.0311 22.0554 12.8367 22.0954 14.606 21.814M13.676 18.517C13.796 18.503 13.911 18.4873 14.021 18.47C14.932 18.325 15.697 17.837 16.397 17.308L18.205 15.943C18.5277 15.7088 18.9163 15.5827 19.315 15.5827C19.7137 15.5827 20.1023 15.7088 20.425 15.943C20.998 16.376 21.174 17.089 20.811 17.671C20.388 18.349 19.792 19.216 19.22 19.746M13.676 18.517L13.566 18.529M13.676 18.517C13.836 18.4736 13.9828 18.3912 14.103 18.277C14.2539 18.1468 14.3772 17.9876 14.4655 17.8089C14.5538 17.6302 14.6054 17.4356 14.6171 17.2366C14.6289 17.0376 14.6006 16.8383 14.5339 16.6505C14.4672 16.4626 14.3636 16.2901 14.229 16.143C14.0987 15.9983 13.9469 15.8745 13.779 15.776C10.982 14.107 6.629 15.378 4 17.243M13.676 18.517C13.6399 18.5251 13.603 18.5291 13.566 18.529M13.566 18.529C12.9629 18.5894 12.3554 18.5908 11.752 18.533" stroke="#6B7280" stroke-width="1.5" stroke-linecap="round"/>
</svg>
