<svg width="27" height="27" viewBox="0 0 27 27" fill="none" xmlns="http://www.w3.org/2000/svg">
<path d="M19.9743 15.75C20.6452 15.7506 21.2885 16.0175 21.7627 16.4922C22.2369 16.9668 22.5033 17.6103 22.5033 18.2812V19.314C22.5033 19.9586 22.3019 20.5871 21.9273 21.1117C20.188 23.5462 17.3485 24.7511 13.501 24.7511C9.65127 24.7511 6.81289 23.5451 5.07814 21.1106C4.70479 20.5864 4.50422 19.9587 4.50439 19.3151V18.2801C4.50469 17.6092 4.77135 16.9658 5.24578 16.4914C5.72021 16.0169 6.36358 15.7503 7.03452 15.75H19.9743ZM13.4999 2.25562C14.2386 2.25562 14.97 2.40111 15.6525 2.68379C16.3349 2.96648 16.955 3.38081 17.4774 3.90314C17.9997 4.42547 18.414 5.04556 18.6967 5.72802C18.9794 6.41048 19.1249 7.14193 19.1249 7.88061C19.1249 8.6193 18.9794 9.35075 18.6967 10.0332C18.414 10.7157 17.9997 11.3358 17.4774 11.8581C16.955 12.3804 16.3349 12.7948 15.6525 13.0774C14.97 13.3601 14.2386 13.5056 13.4999 13.5056C12.0081 13.5056 10.5773 12.913 9.52242 11.8581C8.46753 10.8032 7.87489 9.37246 7.87489 7.88061C7.87489 6.38877 8.46753 4.95803 9.52242 3.90314C10.5773 2.84825 12.0081 2.25562 13.4999 2.25562Z" fill="black"/>
</svg>
